<?xml version="1.0" encoding="utf-8"?>
<!DOCTYPE svg
  PUBLIC '-//W3C//DTD SVG 1.0//EN'
  'http://www.w3.org/TR/2001/REC-SVG-20010904/DTD/svg10.dtd'>
<svg width="1200" height="860" preserveAspectRatio="xMinYMin meet" viewBox="0 0 1200 860" xmlns="http://www.w3.org/2000/svg" version="1.0" fill-rule="evenodd" xmlns:xlink="http://www.w3.org/1999/xlink">
	<title>...</title>
	<desc>...</desc>
	<clipPath id="clip">
		<rect x="0" y="0" width="1200" height="860"/>
	</clipPath>
	<g id="group" transform="scale(1,-1) translate(0,-860)" style="clip-path: url(#clip)">
		<g transform="">
			<rect x="0" y="0" width="1200" height="860" style="stroke: rgb(95%,96%,97%); stroke-linecap: butt; stroke-width: 1; fill: rgb(95%,96%,97%); fill-rule: evenodd;"/>
			<rect x="0" y="790" width="1200" height="70" style="stroke: rgb(9%,19%,30%); stroke-linecap: butt; stroke-width: 1; fill: rgb(9%,19%,30%); fill-rule: evenodd;"/>
			<text x="28" y="829" style="font-family: Helvetica-Bold; font-size: 20px;fill: rgb(100%,100%,100%); stroke:none;" transform="translate(0,1658) scale(1,-1)">Backend comparison</text>
			<text x="28" y="808" style="font-family: Helvetica; font-size: 9px;fill: rgb(84%,89%,92%); stroke:none;" transform="translate(0,1616) scale(1,-1)">Qwen3-8B BF16 | RTX 5090 | Matched 4-GPU configurations | TP=1 | cache disabled | 3 repeats</text>
			<rect x="28.0" y="425.0" width="563.0" height="347.0" rx="5" ry="5" style="stroke: rgb(86%,89%,90%); stroke-linecap: butt; stroke-width: 1; fill: rgb(100%,100%,100%); fill-rule: evenodd;"/>
			<text x="40.0" y="750.0" style="font-family: Helvetica-Bold; font-size: 12px;fill: rgb(9%,19%,30%); stroke:none;" transform="translate(0,1500) scale(1,-1)">Balanced output throughput</text>
			<path d="M 94,513 L 571,513 Z" style="stroke: rgb(86%,89%,90%); stroke-linecap: butt; stroke-width: 0.5;"/>
			<text x="82.55199999999999" y="510.0" style="font-family: Helvetica; font-size: 8px;fill: rgb(38%,44%,49%); stroke:none;" transform="translate(0,1020) scale(1,-1)">0</text>
			<path d="M 94,565.75 L 571,565.75 Z" style="stroke: rgb(86%,89%,90%); stroke-linecap: butt; stroke-width: 0.5;"/>
			<text x="73.656" y="562.75" style="font-family: Helvetica; font-size: 8px;fill: rgb(38%,44%,49%); stroke:none;" transform="translate(0,1125) scale(1,-1)">883</text>
			<path d="M 94,618.5 L 571,618.5 Z" style="stroke: rgb(86%,89%,90%); stroke-linecap: butt; stroke-width: 0.5;"/>
			<text x="71.88" y="615.5" style="font-family: Helvetica; font-size: 8px;fill: rgb(38%,44%,49%); stroke:none;" transform="translate(0,1231) scale(1,-1)">1.8k</text>
			<path d="M 94,671.25 L 571,671.25 Z" style="stroke: rgb(86%,89%,90%); stroke-linecap: butt; stroke-width: 0.5;"/>
			<text x="71.88" y="668.25" style="font-family: Helvetica; font-size: 8px;fill: rgb(38%,44%,49%); stroke:none;" transform="translate(0,1336) scale(1,-1)">2.7k</text>
			<path d="M 94,724 L 571,724 Z" style="stroke: rgb(86%,89%,90%); stroke-linecap: butt; stroke-width: 0.5;"/>
			<text x="71.88" y="721.0" style="font-family: Helvetica; font-size: 8px;fill: rgb(38%,44%,49%); stroke:none;" transform="translate(0,1442) scale(1,-1)">3.5k</text>
			<path d="M 94,513 L 94,724 Z" style="stroke: rgb(38%,44%,49%); stroke-linecap: butt; stroke-width: 0.8;"/>
			<path d="M 94,513 L 571,513 Z" style="stroke: rgb(38%,44%,49%); stroke-linecap: butt; stroke-width: 0.8;"/>
			<path d="M 94,513 L 94,509 Z" style="stroke: rgb(38%,44%,49%); stroke-linecap: butt; stroke-width: 0.6;"/>
			<text x="91.776" y="497.0" style="font-family: Helvetica; font-size: 8px;fill: rgb(38%,44%,49%); stroke:none;" transform="translate(0,994) scale(1,-1)">1</text>
			<path d="M 272.875,513 L 272.875,509 Z" style="stroke: rgb(38%,44%,49%); stroke-linecap: butt; stroke-width: 0.6;"/>
			<text x="270.651" y="497.0" style="font-family: Helvetica; font-size: 8px;fill: rgb(38%,44%,49%); stroke:none;" transform="translate(0,994) scale(1,-1)">8</text>
			<path d="M 392.125,513 L 392.125,509 Z" style="stroke: rgb(38%,44%,49%); stroke-linecap: butt; stroke-width: 0.6;"/>
			<text x="387.677" y="497.0" style="font-family: Helvetica; font-size: 8px;fill: rgb(38%,44%,49%); stroke:none;" transform="translate(0,994) scale(1,-1)">32</text>
			<path d="M 511.375,513 L 511.375,509 Z" style="stroke: rgb(38%,44%,49%); stroke-linecap: butt; stroke-width: 0.6;"/>
			<text x="504.703" y="497.0" style="font-family: Helvetica; font-size: 8px;fill: rgb(38%,44%,49%); stroke:none;" transform="translate(0,994) scale(1,-1)">128</text>
			<path d="M 571,513 L 571,509 Z" style="stroke: rgb(38%,44%,49%); stroke-linecap: butt; stroke-width: 0.6;"/>
			<text x="564.328" y="497.0" style="font-family: Helvetica; font-size: 8px;fill: rgb(38%,44%,49%); stroke:none;" transform="translate(0,994) scale(1,-1)">256</text>
			<polyline points="94 517.1717, 272.875 546.5159, 392.125 647.695, 511.375 690.9726, 571 672.0502" style="stroke: rgb(9%,41%,66%); stroke-linecap: butt; stroke-width: 1.6; fill: None; fill-rule: evenodd;"/>
			<rect x="92.0" y="515.1717186838872" width="4.0" height="4.0" style="stroke: rgb(9%,41%,66%); stroke-linecap: butt; stroke-width: 1; fill: rgb(9%,41%,66%); fill-rule: evenodd;"/>
			<rect x="270.875" y="544.5158760708352" width="4.0" height="4.0" style="stroke: rgb(9%,41%,66%); stroke-linecap: butt; stroke-width: 1; fill: rgb(9%,41%,66%); fill-rule: evenodd;"/>
			<rect x="390.125" y="645.6950442861505" width="4.0" height="4.0" style="stroke: rgb(9%,41%,66%); stroke-linecap: butt; stroke-width: 1; fill: rgb(9%,41%,66%); fill-rule: evenodd;"/>
			<rect x="509.375" y="688.9726241721892" width="4.0" height="4.0" style="stroke: rgb(9%,41%,66%); stroke-linecap: butt; stroke-width: 1; fill: rgb(9%,41%,66%); fill-rule: evenodd;"/>
			<rect x="569.0" y="670.0502309106749" width="4.0" height="4.0" style="stroke: rgb(9%,41%,66%); stroke-linecap: butt; stroke-width: 1; fill: rgb(9%,41%,66%); fill-rule: evenodd;"/>
			<polyline points="94 517.5695, 272.875 549.7121, 392.125 660.5418, 511.375 708.3704, 571 687.6594" style="stroke: rgb(0%,54%,51%); stroke-linecap: butt; stroke-width: 1.6; fill: None; fill-rule: evenodd;"/>
			<rect x="92.0" y="515.5695175246256" width="4.0" height="4.0" style="stroke: rgb(0%,54%,51%); stroke-linecap: butt; stroke-width: 1; fill: rgb(0%,54%,51%); fill-rule: evenodd;"/>
			<rect x="270.875" y="547.7120833338711" width="4.0" height="4.0" style="stroke: rgb(0%,54%,51%); stroke-linecap: butt; stroke-width: 1; fill: rgb(0%,54%,51%); fill-rule: evenodd;"/>
			<rect x="390.125" y="658.5417751938726" width="4.0" height="4.0" style="stroke: rgb(0%,54%,51%); stroke-linecap: butt; stroke-width: 1; fill: rgb(0%,54%,51%); fill-rule: evenodd;"/>
			<rect x="509.375" y="706.3703703703703" width="4.0" height="4.0" style="stroke: rgb(0%,54%,51%); stroke-linecap: butt; stroke-width: 1; fill: rgb(0%,54%,51%); fill-rule: evenodd;"/>
			<rect x="569.0" y="685.6594137397773" width="4.0" height="4.0" style="stroke: rgb(0%,54%,51%); stroke-linecap: butt; stroke-width: 1; fill: rgb(0%,54%,51%); fill-rule: evenodd;"/>
			<g transform=" matrix(0,1,-1,0,45,618.5)">
				<text x="-28.016000000000002" y="0" style="font-family: Helvetica; font-size: 8px;fill: rgb(38%,44%,49%); stroke:none;" transform="translate(0,0) scale(1,-1)">Output tokens/s</text>
			</g>
			<text x="269.152" y="481.0" style="font-family: Helvetica; font-size: 8px;fill: rgb(38%,44%,49%); stroke:none;" transform="translate(0,962) scale(1,-1)">Concurrency (requests; logarithmic)</text>
			<path d="M 44,445 L 56,445 Z" style="stroke: rgb(9%,41%,66%); stroke-linecap: butt; stroke-width: 2;"/>
			<text x="61.0" y="442.0" style="font-family: Helvetica; font-size: 8px;fill: rgb(38%,44%,49%); stroke:none;" transform="translate(0,884) scale(1,-1)">vLLM</text>
			<path d="M 95.56,445 L 107.56,445 Z" style="stroke: rgb(0%,54%,51%); stroke-linecap: butt; stroke-width: 2;"/>
			<text x="112.56" y="442.0" style="font-family: Helvetica; font-size: 8px;fill: rgb(38%,44%,49%); stroke:none;" transform="translate(0,884) scale(1,-1)">TensorRT-LLM</text>
			<rect x="609.0" y="425.0" width="563.0" height="347.0" rx="5" ry="5" style="stroke: rgb(86%,89%,90%); stroke-linecap: butt; stroke-width: 1; fill: rgb(100%,100%,100%); fill-rule: evenodd;"/>
			<text x="621.0" y="750.0" style="font-family: Helvetica-Bold; font-size: 12px;fill: rgb(9%,19%,30%); stroke:none;" transform="translate(0,1500) scale(1,-1)">Mean run P95 TTFT: balanced</text>
			<path d="M 675,513 L 1152,513 Z" style="stroke: rgb(86%,89%,90%); stroke-linecap: butt; stroke-width: 0.5;"/>
			<text x="654.656" y="510.0" style="font-family: Helvetica; font-size: 8px;fill: rgb(38%,44%,49%); stroke:none;" transform="translate(0,1020) scale(1,-1)">191</text>
			<path d="M 675,565.75 L 1152,565.75 Z" style="stroke: rgb(86%,89%,90%); stroke-linecap: butt; stroke-width: 0.5;"/>
			<text x="654.656" y="562.75" style="font-family: Helvetica; font-size: 8px;fill: rgb(38%,44%,49%); stroke:none;" transform="translate(0,1125) scale(1,-1)">678</text>
			<path d="M 675,618.5 L 1152,618.5 Z" style="stroke: rgb(86%,89%,90%); stroke-linecap: butt; stroke-width: 0.5;"/>
			<text x="652.88" y="615.5" style="font-family: Helvetica; font-size: 8px;fill: rgb(38%,44%,49%); stroke:none;" transform="translate(0,1231) scale(1,-1)">2.4k</text>
			<path d="M 675,671.25 L 1152,671.25 Z" style="stroke: rgb(86%,89%,90%); stroke-linecap: butt; stroke-width: 0.5;"/>
			<text x="652.88" y="668.25" style="font-family: Helvetica; font-size: 8px;fill: rgb(38%,44%,49%); stroke:none;" transform="translate(0,1336) scale(1,-1)">8.5k</text>
			<path d="M 675,724 L 1152,724 Z" style="stroke: rgb(86%,89%,90%); stroke-linecap: butt; stroke-width: 0.5;"/>
			<text x="655.104" y="721.0" style="font-family: Helvetica; font-size: 8px;fill: rgb(38%,44%,49%); stroke:none;" transform="translate(0,1442) scale(1,-1)">30k</text>
			<path d="M 675,513 L 675,724 Z" style="stroke: rgb(38%,44%,49%); stroke-linecap: butt; stroke-width: 0.8;"/>
			<path d="M 675,513 L 1152,513 Z" style="stroke: rgb(38%,44%,49%); stroke-linecap: butt; stroke-width: 0.8;"/>
			<path d="M 675,513 L 675,509 Z" style="stroke: rgb(38%,44%,49%); stroke-linecap: butt; stroke-width: 0.6;"/>
			<text x="672.776" y="497.0" style="font-family: Helvetica; font-size: 8px;fill: rgb(38%,44%,49%); stroke:none;" transform="translate(0,994) scale(1,-1)">1</text>
			<path d="M 853.875,513 L 853.875,509 Z" style="stroke: rgb(38%,44%,49%); stroke-linecap: butt; stroke-width: 0.6;"/>
			<text x="851.651" y="497.0" style="font-family: Helvetica; font-size: 8px;fill: rgb(38%,44%,49%); stroke:none;" transform="translate(0,994) scale(1,-1)">8</text>
			<path d="M 973.125,513 L 973.125,509 Z" style="stroke: rgb(38%,44%,49%); stroke-linecap: butt; stroke-width: 0.6;"/>
			<text x="968.677" y="497.0" style="font-family: Helvetica; font-size: 8px;fill: rgb(38%,44%,49%); stroke:none;" transform="translate(0,994) scale(1,-1)">32</text>
			<path d="M 1092.375,513 L 1092.375,509 Z" style="stroke: rgb(38%,44%,49%); stroke-linecap: butt; stroke-width: 0.6;"/>
			<text x="1085.703" y="497.0" style="font-family: Helvetica; font-size: 8px;fill: rgb(38%,44%,49%); stroke:none;" transform="translate(0,994) scale(1,-1)">128</text>
			<path d="M 1152,513 L 1152,509 Z" style="stroke: rgb(38%,44%,49%); stroke-linecap: butt; stroke-width: 0.6;"/>
			<text x="1145.328" y="497.0" style="font-family: Helvetica; font-size: 8px;fill: rgb(38%,44%,49%); stroke:none;" transform="translate(0,994) scale(1,-1)">256</text>
			<polyline points="675 526.9255, 853.875 527.6051, 973.125 525.5975, 1092.375 646.9199, 1152 712.6964" style="stroke: rgb(9%,41%,66%); stroke-linecap: butt; stroke-width: 1.6; fill: None; fill-rule: evenodd;"/>
			<rect x="673.0" y="524.925468838736" width="4.0" height="4.0" style="stroke: rgb(9%,41%,66%); stroke-linecap: butt; stroke-width: 1; fill: rgb(9%,41%,66%); fill-rule: evenodd;"/>
			<rect x="851.875" y="525.6051141473529" width="4.0" height="4.0" style="stroke: rgb(9%,41%,66%); stroke-linecap: butt; stroke-width: 1; fill: rgb(9%,41%,66%); fill-rule: evenodd;"/>
			<rect x="971.125" y="523.5974883802676" width="4.0" height="4.0" style="stroke: rgb(9%,41%,66%); stroke-linecap: butt; stroke-width: 1; fill: rgb(9%,41%,66%); fill-rule: evenodd;"/>
			<rect x="1090.375" y="644.9199255038508" width="4.0" height="4.0" style="stroke: rgb(9%,41%,66%); stroke-linecap: butt; stroke-width: 1; fill: rgb(9%,41%,66%); fill-rule: evenodd;"/>
			<rect x="1150.0" y="710.6964285714286" width="4.0" height="4.0" style="stroke: rgb(9%,41%,66%); stroke-linecap: butt; stroke-width: 1; fill: rgb(9%,41%,66%); fill-rule: evenodd;"/>
			<polyline points="675 525.5964, 853.875 526.2585, 973.125 524.3036, 1092.375 643.1799, 1152 708.8171" style="stroke: rgb(0%,54%,51%); stroke-linecap: butt; stroke-width: 1.6; fill: None; fill-rule: evenodd;"/>
			<rect x="673.0" y="523.59636022836" width="4.0" height="4.0" style="stroke: rgb(0%,54%,51%); stroke-linecap: butt; stroke-width: 1; fill: rgb(0%,54%,51%); fill-rule: evenodd;"/>
			<rect x="851.875" y="524.2585185989166" width="4.0" height="4.0" style="stroke: rgb(0%,54%,51%); stroke-linecap: butt; stroke-width: 1; fill: rgb(0%,54%,51%); fill-rule: evenodd;"/>
			<rect x="971.125" y="522.3035714285714" width="4.0" height="4.0" style="stroke: rgb(0%,54%,51%); stroke-linecap: butt; stroke-width: 1; fill: rgb(0%,54%,51%); fill-rule: evenodd;"/>
			<rect x="1090.375" y="641.1799181297063" width="4.0" height="4.0" style="stroke: rgb(0%,54%,51%); stroke-linecap: butt; stroke-width: 1; fill: rgb(0%,54%,51%); fill-rule: evenodd;"/>
			<rect x="1150.0" y="706.8170989425723" width="4.0" height="4.0" style="stroke: rgb(0%,54%,51%); stroke-linecap: butt; stroke-width: 1; fill: rgb(0%,54%,51%); fill-rule: evenodd;"/>
			<g transform=" matrix(0,1,-1,0,626,618.5)">
				<text x="-21.78" y="0" style="font-family: Helvetica; font-size: 8px;fill: rgb(38%,44%,49%); stroke:none;" transform="translate(0,0) scale(1,-1)">Milliseconds</text>
			</g>
			<text x="850.152" y="481.0" style="font-family: Helvetica; font-size: 8px;fill: rgb(38%,44%,49%); stroke:none;" transform="translate(0,962) scale(1,-1)">Concurrency (requests; logarithmic)</text>
			<path d="M 625,445 L 637,445 Z" style="stroke: rgb(9%,41%,66%); stroke-linecap: butt; stroke-width: 2;"/>
			<text x="642.0" y="442.0" style="font-family: Helvetica; font-size: 8px;fill: rgb(38%,44%,49%); stroke:none;" transform="translate(0,884) scale(1,-1)">vLLM</text>
			<path d="M 676.56,445 L 688.56,445 Z" style="stroke: rgb(0%,54%,51%); stroke-linecap: butt; stroke-width: 2;"/>
			<text x="693.56" y="442.0" style="font-family: Helvetica; font-size: 8px;fill: rgb(38%,44%,49%); stroke:none;" transform="translate(0,884) scale(1,-1)">TensorRT-LLM</text>
			<rect x="28.0" y="62.0" width="563.0" height="347.0" rx="5" ry="5" style="stroke: rgb(86%,89%,90%); stroke-linecap: butt; stroke-width: 1; fill: rgb(100%,100%,100%); fill-rule: evenodd;"/>
			<text x="40.0" y="387.0" style="font-family: Helvetica-Bold; font-size: 12px;fill: rgb(9%,19%,30%); stroke:none;" transform="translate(0,774) scale(1,-1)">RAG joint SLO goodput</text>
			<path d="M 94,150 L 571,150 Z" style="stroke: rgb(86%,89%,90%); stroke-linecap: butt; stroke-width: 0.5;"/>
			<text x="82.55199999999999" y="147.0" style="font-family: Helvetica; font-size: 8px;fill: rgb(38%,44%,49%); stroke:none;" transform="translate(0,294) scale(1,-1)">0</text>
			<path d="M 94,202.75 L 571,202.75 Z" style="stroke: rgb(86%,89%,90%); stroke-linecap: butt; stroke-width: 0.5;"/>
			<text x="71.432" y="199.75" style="font-family: Helvetica; font-size: 8px;fill: rgb(38%,44%,49%); stroke:none;" transform="translate(0,399) scale(1,-1)">1.87</text>
			<path d="M 94,255.5 L 571,255.5 Z" style="stroke: rgb(86%,89%,90%); stroke-linecap: butt; stroke-width: 0.5;"/>
			<text x="71.432" y="252.5" style="font-family: Helvetica; font-size: 8px;fill: rgb(38%,44%,49%); stroke:none;" transform="translate(0,505) scale(1,-1)">3.75</text>
			<path d="M 94,308.25 L 571,308.25 Z" style="stroke: rgb(86%,89%,90%); stroke-linecap: butt; stroke-width: 0.5;"/>
			<text x="71.432" y="305.25" style="font-family: Helvetica; font-size: 8px;fill: rgb(38%,44%,49%); stroke:none;" transform="translate(0,610) scale(1,-1)">5.62</text>
			<path d="M 94,361 L 571,361 Z" style="stroke: rgb(86%,89%,90%); stroke-linecap: butt; stroke-width: 0.5;"/>
			<text x="75.88" y="358.0" style="font-family: Helvetica; font-size: 8px;fill: rgb(38%,44%,49%); stroke:none;" transform="translate(0,716) scale(1,-1)">7.5</text>
			<path d="M 94,150 L 94,361 Z" style="stroke: rgb(38%,44%,49%); stroke-linecap: butt; stroke-width: 0.8;"/>
			<path d="M 94,150 L 571,150 Z" style="stroke: rgb(38%,44%,49%); stroke-linecap: butt; stroke-width: 0.8;"/>
			<path d="M 94,150 L 94,146 Z" style="stroke: rgb(38%,44%,49%); stroke-linecap: butt; stroke-width: 0.6;"/>
			<text x="91.776" y="134.0" style="font-family: Helvetica; font-size: 8px;fill: rgb(38%,44%,49%); stroke:none;" transform="translate(0,268) scale(1,-1)">1</text>
			<path d="M 272.875,150 L 272.875,146 Z" style="stroke: rgb(38%,44%,49%); stroke-linecap: butt; stroke-width: 0.6;"/>
			<text x="270.651" y="134.0" style="font-family: Helvetica; font-size: 8px;fill: rgb(38%,44%,49%); stroke:none;" transform="translate(0,268) scale(1,-1)">8</text>
			<path d="M 392.125,150 L 392.125,146 Z" style="stroke: rgb(38%,44%,49%); stroke-linecap: butt; stroke-width: 0.6;"/>
			<text x="387.677" y="134.0" style="font-family: Helvetica; font-size: 8px;fill: rgb(38%,44%,49%); stroke:none;" transform="translate(0,268) scale(1,-1)">32</text>
			<path d="M 511.375,150 L 511.375,146 Z" style="stroke: rgb(38%,44%,49%); stroke-linecap: butt; stroke-width: 0.6;"/>
			<text x="504.703" y="134.0" style="font-family: Helvetica; font-size: 8px;fill: rgb(38%,44%,49%); stroke:none;" transform="translate(0,268) scale(1,-1)">128</text>
			<path d="M 571,150 L 571,146 Z" style="stroke: rgb(38%,44%,49%); stroke-linecap: butt; stroke-width: 0.6;"/>
			<text x="564.328" y="134.0" style="font-family: Helvetica; font-size: 8px;fill: rgb(38%,44%,49%); stroke:none;" transform="translate(0,268) scale(1,-1)">256</text>
			<polyline points="94 156.3834, 272.875 203.3121, 392.125 327.6337, 511.375 150, 571 150" style="stroke: rgb(9%,41%,66%); stroke-linecap: butt; stroke-width: 1.6; fill: None; fill-rule: evenodd;"/>
			<rect x="92.0" y="154.38341213703583" width="4.0" height="4.0" style="stroke: rgb(9%,41%,66%); stroke-linecap: butt; stroke-width: 1; fill: rgb(9%,41%,66%); fill-rule: evenodd;"/>
			<rect x="270.875" y="201.31210599693253" width="4.0" height="4.0" style="stroke: rgb(9%,41%,66%); stroke-linecap: butt; stroke-width: 1; fill: rgb(9%,41%,66%); fill-rule: evenodd;"/>
			<rect x="390.125" y="325.63371103538583" width="4.0" height="4.0" style="stroke: rgb(9%,41%,66%); stroke-linecap: butt; stroke-width: 1; fill: rgb(9%,41%,66%); fill-rule: evenodd;"/>
			<rect x="509.375" y="148.0" width="4.0" height="4.0" style="stroke: rgb(9%,41%,66%); stroke-linecap: butt; stroke-width: 1; fill: rgb(9%,41%,66%); fill-rule: evenodd;"/>
			<rect x="569.0" y="148.0" width="4.0" height="4.0" style="stroke: rgb(9%,41%,66%); stroke-linecap: butt; stroke-width: 1; fill: rgb(9%,41%,66%); fill-rule: evenodd;"/>
			<polyline points="94 157.2595, 272.875 210.1222, 392.125 345.3704, 511.375 150, 571 150" style="stroke: rgb(0%,54%,51%); stroke-linecap: butt; stroke-width: 1.6; fill: None; fill-rule: evenodd;"/>
			<rect x="92.0" y="155.25949962598804" width="4.0" height="4.0" style="stroke: rgb(0%,54%,51%); stroke-linecap: butt; stroke-width: 1; fill: rgb(0%,54%,51%); fill-rule: evenodd;"/>
			<rect x="270.875" y="208.1222237019245" width="4.0" height="4.0" style="stroke: rgb(0%,54%,51%); stroke-linecap: butt; stroke-width: 1; fill: rgb(0%,54%,51%); fill-rule: evenodd;"/>
			<rect x="390.125" y="343.3703703703704" width="4.0" height="4.0" style="stroke: rgb(0%,54%,51%); stroke-linecap: butt; stroke-width: 1; fill: rgb(0%,54%,51%); fill-rule: evenodd;"/>
			<rect x="509.375" y="148.0" width="4.0" height="4.0" style="stroke: rgb(0%,54%,51%); stroke-linecap: butt; stroke-width: 1; fill: rgb(0%,54%,51%); fill-rule: evenodd;"/>
			<rect x="569.0" y="148.0" width="4.0" height="4.0" style="stroke: rgb(0%,54%,51%); stroke-linecap: butt; stroke-width: 1; fill: rgb(0%,54%,51%); fill-rule: evenodd;"/>
			<g transform=" matrix(0,1,-1,0,45,255.5)">
				<text x="-20.008" y="0" style="font-family: Helvetica; font-size: 8px;fill: rgb(38%,44%,49%); stroke:none;" transform="translate(0,0) scale(1,-1)">Requests/s</text>
			</g>
			<text x="269.152" y="118.0" style="font-family: Helvetica; font-size: 8px;fill: rgb(38%,44%,49%); stroke:none;" transform="translate(0,236) scale(1,-1)">Concurrency (requests; logarithmic)</text>
			<path d="M 44,82 L 56,82 Z" style="stroke: rgb(9%,41%,66%); stroke-linecap: butt; stroke-width: 2;"/>
			<text x="61.0" y="79.0" style="font-family: Helvetica; font-size: 8px;fill: rgb(38%,44%,49%); stroke:none;" transform="translate(0,158) scale(1,-1)">vLLM</text>
			<path d="M 95.56,82 L 107.56,82 Z" style="stroke: rgb(0%,54%,51%); stroke-linecap: butt; stroke-width: 2;"/>
			<text x="112.56" y="79.0" style="font-family: Helvetica; font-size: 8px;fill: rgb(38%,44%,49%); stroke:none;" transform="translate(0,158) scale(1,-1)">TensorRT-LLM</text>
			<rect x="609.0" y="62.0" width="563.0" height="347.0" rx="5" ry="5" style="stroke: rgb(86%,89%,90%); stroke-linecap: butt; stroke-width: 1; fill: rgb(100%,100%,100%); fill-rule: evenodd;"/>
			<text x="621.0" y="387.0" style="font-family: Helvetica-Bold; font-size: 12px;fill: rgb(9%,19%,30%); stroke:none;" transform="translate(0,774) scale(1,-1)">Long decode GPU unit cost</text>
			<path d="M 675,150 L 1152,150 Z" style="stroke: rgb(86%,89%,90%); stroke-linecap: butt; stroke-width: 0.5;"/>
			<text x="663.552" y="147.0" style="font-family: Helvetica; font-size: 8px;fill: rgb(38%,44%,49%); stroke:none;" transform="translate(0,294) scale(1,-1)">0</text>
			<path d="M 675,202.75 L 1152,202.75 Z" style="stroke: rgb(86%,89%,90%); stroke-linecap: butt; stroke-width: 0.5;"/>
			<text x="652.432" y="199.75" style="font-family: Helvetica; font-size: 8px;fill: rgb(38%,44%,49%); stroke:none;" transform="translate(0,399) scale(1,-1)">4.07</text>
			<path d="M 675,255.5 L 1152,255.5 Z" style="stroke: rgb(86%,89%,90%); stroke-linecap: butt; stroke-width: 0.5;"/>
			<text x="652.432" y="252.5" style="font-family: Helvetica; font-size: 8px;fill: rgb(38%,44%,49%); stroke:none;" transform="translate(0,505) scale(1,-1)">8.14</text>
			<path d="M 675,308.25 L 1152,308.25 Z" style="stroke: rgb(86%,89%,90%); stroke-linecap: butt; stroke-width: 0.5;"/>
			<text x="652.432" y="305.25" style="font-family: Helvetica; font-size: 8px;fill: rgb(38%,44%,49%); stroke:none;" transform="translate(0,610) scale(1,-1)">12.2</text>
			<path d="M 675,361 L 1152,361 Z" style="stroke: rgb(86%,89%,90%); stroke-linecap: butt; stroke-width: 0.5;"/>
			<text x="652.432" y="358.0" style="font-family: Helvetica; font-size: 8px;fill: rgb(38%,44%,49%); stroke:none;" transform="translate(0,716) scale(1,-1)">16.3</text>
			<path d="M 675,150 L 675,361 Z" style="stroke: rgb(38%,44%,49%); stroke-linecap: butt; stroke-width: 0.8;"/>
			<path d="M 675,150 L 1152,150 Z" style="stroke: rgb(38%,44%,49%); stroke-linecap: butt; stroke-width: 0.8;"/>
			<path d="M 675,150 L 675,146 Z" style="stroke: rgb(38%,44%,49%); stroke-linecap: butt; stroke-width: 0.6;"/>
			<text x="672.776" y="134.0" style="font-family: Helvetica; font-size: 8px;fill: rgb(38%,44%,49%); stroke:none;" transform="translate(0,268) scale(1,-1)">1</text>
			<path d="M 853.875,150 L 853.875,146 Z" style="stroke: rgb(38%,44%,49%); stroke-linecap: butt; stroke-width: 0.6;"/>
			<text x="851.651" y="134.0" style="font-family: Helvetica; font-size: 8px;fill: rgb(38%,44%,49%); stroke:none;" transform="translate(0,268) scale(1,-1)">8</text>
			<path d="M 973.125,150 L 973.125,146 Z" style="stroke: rgb(38%,44%,49%); stroke-linecap: butt; stroke-width: 0.6;"/>
			<text x="968.677" y="134.0" style="font-family: Helvetica; font-size: 8px;fill: rgb(38%,44%,49%); stroke:none;" transform="translate(0,268) scale(1,-1)">32</text>
			<path d="M 1092.375,150 L 1092.375,146 Z" style="stroke: rgb(38%,44%,49%); stroke-linecap: butt; stroke-width: 0.6;"/>
			<text x="1085.703" y="134.0" style="font-family: Helvetica; font-size: 8px;fill: rgb(38%,44%,49%); stroke:none;" transform="translate(0,268) scale(1,-1)">128</text>
			<path d="M 1152,150 L 1152,146 Z" style="stroke: rgb(38%,44%,49%); stroke-linecap: butt; stroke-width: 0.6;"/>
			<text x="1145.328" y="134.0" style="font-family: Helvetica; font-size: 8px;fill: rgb(38%,44%,49%); stroke:none;" transform="translate(0,268) scale(1,-1)">256</text>
			<polyline points="675 345.3704, 853.875 174.294, 973.125 156.0931, 1092.375 154.6805, 1152 155.438" style="stroke: rgb(9%,41%,66%); stroke-linecap: butt; stroke-width: 1.6; fill: None; fill-rule: evenodd;"/>
			<rect x="673.0" y="343.3703703703704" width="4.0" height="4.0" style="stroke: rgb(9%,41%,66%); stroke-linecap: butt; stroke-width: 1; fill: rgb(9%,41%,66%); fill-rule: evenodd;"/>
			<rect x="851.875" y="172.2940139244448" width="4.0" height="4.0" style="stroke: rgb(9%,41%,66%); stroke-linecap: butt; stroke-width: 1; fill: rgb(9%,41%,66%); fill-rule: evenodd;"/>
			<rect x="971.125" y="154.0931310835851" width="4.0" height="4.0" style="stroke: rgb(9%,41%,66%); stroke-linecap: butt; stroke-width: 1; fill: rgb(9%,41%,66%); fill-rule: evenodd;"/>
			<rect x="1090.375" y="152.68051835102827" width="4.0" height="4.0" style="stroke: rgb(9%,41%,66%); stroke-linecap: butt; stroke-width: 1; fill: rgb(9%,41%,66%); fill-rule: evenodd;"/>
			<rect x="1150.0" y="153.43802650105368" width="4.0" height="4.0" style="stroke: rgb(9%,41%,66%); stroke-linecap: butt; stroke-width: 1; fill: rgb(9%,41%,66%); fill-rule: evenodd;"/>
			<polyline points="675 327.7354, 853.875 172.101, 973.125 155.5431, 1092.375 154.2564, 1152 154.9448" style="stroke: rgb(0%,54%,51%); stroke-linecap: butt; stroke-width: 1.6; fill: None; fill-rule: evenodd;"/>
			<rect x="673.0" y="325.735439957632" width="4.0" height="4.0" style="stroke: rgb(0%,54%,51%); stroke-linecap: butt; stroke-width: 1; fill: rgb(0%,54%,51%); fill-rule: evenodd;"/>
			<rect x="851.875" y="170.1010368386626" width="4.0" height="4.0" style="stroke: rgb(0%,54%,51%); stroke-linecap: butt; stroke-width: 1; fill: rgb(0%,54%,51%); fill-rule: evenodd;"/>
			<rect x="971.125" y="153.54313911191375" width="4.0" height="4.0" style="stroke: rgb(0%,54%,51%); stroke-linecap: butt; stroke-width: 1; fill: rgb(0%,54%,51%); fill-rule: evenodd;"/>
			<rect x="1090.375" y="152.25642560526333" width="4.0" height="4.0" style="stroke: rgb(0%,54%,51%); stroke-linecap: butt; stroke-width: 1; fill: rgb(0%,54%,51%); fill-rule: evenodd;"/>
			<rect x="1150.0" y="152.94481210334288" width="4.0" height="4.0" style="stroke: rgb(0%,54%,51%); stroke-linecap: butt; stroke-width: 1; fill: rgb(0%,54%,51%); fill-rule: evenodd;"/>
			<g transform=" matrix(0,1,-1,0,626,255.5)">
				<text x="-48.24" y="0" style="font-family: Helvetica; font-size: 8px;fill: rgb(38%,44%,49%); stroke:none;" transform="translate(0,0) scale(1,-1)">USD / million output tokens</text>
			</g>
			<text x="850.152" y="118.0" style="font-family: Helvetica; font-size: 8px;fill: rgb(38%,44%,49%); stroke:none;" transform="translate(0,236) scale(1,-1)">Concurrency (requests; logarithmic)</text>
			<path d="M 625,82 L 637,82 Z" style="stroke: rgb(9%,41%,66%); stroke-linecap: butt; stroke-width: 2;"/>
			<text x="642.0" y="79.0" style="font-family: Helvetica; font-size: 8px;fill: rgb(38%,44%,49%); stroke:none;" transform="translate(0,158) scale(1,-1)">vLLM</text>
			<path d="M 676.56,82 L 688.56,82 Z" style="stroke: rgb(0%,54%,51%); stroke-linecap: butt; stroke-width: 2;"/>
			<text x="693.56" y="79.0" style="font-family: Helvetica; font-size: 8px;fill: rgb(38%,44%,49%); stroke:none;" transform="translate(0,158) scale(1,-1)">TensorRT-LLM</text>
			<path d="M 28,43 L 1172,43 Z" style="stroke: rgb(86%,89%,90%); stroke-linecap: butt; stroke-width: 0.7;"/>
			<text x="28" y="25" style="font-family: Helvetica; font-size: 8px;fill: rgb(38%,44%,49%); stroke:none;" transform="translate(0,50) scale(1,-1)">Qwen3-8B BF16 | RTX 5090 | 8-GPU fleet budget</text>
		</g>
	</g>
</svg>
